<svg width="30" height="30" viewBox="0 0 30 30" fill="none" xmlns="http://www.w3.org/2000/svg">
<path fill-rule="evenodd" clip-rule="evenodd" d="M14.3362 21.2888C14.4233 21.3761 14.5267 21.4454 14.6406 21.4926C14.7545 21.5399 14.8766 21.5642 14.9999 21.5642C15.1232 21.5642 15.2453 21.5399 15.3592 21.4926C15.4731 21.4454 15.5766 21.3761 15.6637 21.2888L26.9137 10.0388C27.0897 9.86275 27.1886 9.62399 27.1886 9.37503C27.1886 9.12608 27.0897 8.88732 26.9137 8.71128C26.7376 8.53525 26.4989 8.43635 26.2499 8.43635C26.001 8.43635 25.7622 8.53525 25.5862 8.71128L14.9999 19.2994L4.41368 8.71128C4.23765 8.53525 3.99889 8.43635 3.74993 8.43635C3.50098 8.43635 3.26222 8.53525 3.08618 8.71128C2.91015 8.88732 2.81125 9.12608 2.81125 9.37503C2.81125 9.62399 2.91015 9.86275 3.08618 10.0388L14.3362 21.2888Z" fill="black"/>
</svg>
